<mxfile host="app.diagrams.net" modified="2024-03-10T22:48:43.291Z" agent="Mozilla/5.0 (Windows NT 10.0; Win64; x64) AppleWebKit/537.36 (KHTML, like Gecko) Chrome/122.0.0.0 Safari/537.36" etag="Kv1FURDu6j4O8m-m1gDR" version="24.0.1" type="device">
  <diagram name="PÃ¡gina-1" id="TjR4Qn-Iz_r-y-ZCXcBp">
    <mxGraphModel dx="1437" dy="2355" grid="1" gridSize="10" guides="1" tooltips="1" connect="1" arrows="1" fold="1" page="1" pageScale="1" pageWidth="827" pageHeight="1169" background="none" math="0" shadow="0">
      <root>
        <mxCell id="0" />
        <mxCell id="1" parent="0" />
        <mxCell id="oUDWL8CgOT2m1cm1Y60V-58" value="&lt;span style=&quot;color: rgba(0, 0, 0, 0); font-family: monospace; font-size: 0px; text-align: start;&quot;&gt;%3CmxGraphModel%3E%3Croot%3E%3CmxCell%20id%3D%220%22%2F%3E%3CmxCell%20id%3D%221%22%20parent%3D%220%22%2F%3E%3CmxCell%20id%3D%222%22%20value%3D%22%22%20style%3D%22ellipse%3BwhiteSpace%3Dwrap%3Bhtml%3D1%3Baspect%3Dfixed%3BfillColor%3D%23a20025%3BfontColor%3D%23ffffff%3BstrokeColor%3D%236F0000%3B%22%20vertex%3D%221%22%20parent%3D%221%22%3E%3CmxGeometry%20x%3D%22-388%22%20y%3D%22-140%22%20width%3D%2259%22%20height%3D%2259%22%20as%3D%22geometry%22%2F%3E%3C%2FmxCell%3E%3CmxCell%20id%3D%223%22%20value%3D%22%22%20style%3D%22ellipse%3BwhiteSpace%3Dwrap%3Bhtml%3D1%3Baspect%3Dfixed%3BfillColor%3D%23a20025%3BfontColor%3D%23ffffff%3BstrokeColor%3D%236F0000%3B%22%20vertex%3D%221%22%20parent%3D%221%22%3E%3CmxGeometry%20x%3D%22-447%22%20y%3D%22-39%22%20width%3D%2259%22%20height%3D%2259%22%20as%3D%22geometry%22%2F%3E%3C%2FmxCell%3E%3CmxCell%20id%3D%224%22%20value%3D%22%22%20style%3D%22ellipse%3BwhiteSpace%3Dwrap%3Bhtml%3D1%3Baspect%3Dfixed%3BfillColor%3D%23a20025%3BfontColor%3D%23ffffff%3BstrokeColor%3D%236F0000%3B%22%20vertex%3D%221%22%20parent%3D%221%22%3E%3CmxGeometry%20x%3D%22-307%22%20y%3D%22-39%22%20width%3D%2259%22%20height%3D%2259%22%20as%3D%22geometry%22%2F%3E%3C%2FmxCell%3E%3CmxCell%20id%3D%225%22%20value%3D%22%22%20style%3D%22ellipse%3BwhiteSpace%3Dwrap%3Bhtml%3D1%3Baspect%3Dfixed%3BfillColor%3D%23a20025%3BstrokeColor%3D%236F0000%3BfontColor%3D%23ffffff%3B%22%20vertex%3D%221%22%20parent%3D%221%22%3E%3CmxGeometry%20x%3D%22-513%22%20y%3D%2270%22%20width%3D%2259%22%20height%3D%2259%22%20as%3D%22geometry%22%2F%3E%3C%2FmxCell%3E%3CmxCell%20id%3D%226%22%20value%3D%22%22%20style%3D%22ellipse%3BwhiteSpace%3Dwrap%3Bhtml%3D1%3Baspect%3Dfixed%3BfillColor%3D%23a20025%3BfontColor%3D%23ffffff%3BstrokeColor%3D%236F0000%3B%22%20vertex%3D%221%22%20parent%3D%221%22%3E%3CmxGeometry%20x%3D%22-388%22%20y%3D%2270%22%20width%3D%2259%22%20height%3D%2259%22%20as%3D%22geometry%22%2F%3E%3C%2FmxCell%3E%3CmxCell%20id%3D%227%22%20value%3D%22%22%20style%3D%22ellipse%3BwhiteSpace%3Dwrap%3Bhtml%3D1%3Baspect%3Dfixed%3BfillColor%3D%23a20025%3BfontColor%3D%23ffffff%3BstrokeColor%3D%236F0000%3B%22%20vertex%3D%221%22%20parent%3D%221%22%3E%3CmxGeometry%20x%3D%22-329%22%20y%3D%22211%22%20width%3D%2259%22%20height%3D%2259%22%20as%3D%22geometry%22%2F%3E%3C%2FmxCell%3E%3CmxCell%20id%3D%228%22%20value%3D%22%22%20style%3D%22endArrow%3Dclassic%3Bhtml%3D1%3Brounded%3D0%3BfontSize%3D12%3BstartSize%3D8%3BendSize%3D8%3Bcurved%3D1%3BexitX%3D0.5%3BexitY%3D1%3BexitDx%3D0%3BexitDy%3D0%3BentryX%3D0.712%3BentryY%3D0.051%3BentryDx%3D0%3BentryDy%3D0%3BentryPerimeter%3D0%3B%22%20edge%3D%221%22%20source%3D%222%22%20target%3D%223%22%20parent%3D%221%22%3E%3CmxGeometry%20width%3D%2250%22%20height%3D%2250%22%20relative%3D%221%22%20as%3D%22geometry%22%3E%3CmxPoint%20x%3D%22-400%22%20y%3D%223%22%20as%3D%22sourcePoint%22%2F%3E%3CmxPoint%20x%3D%22-350%22%20y%3D%22-47%22%20as%3D%22targetPoint%22%2F%3E%3C%2FmxGeometry%3E%3C%2FmxCell%3E%3CmxCell%20id%3D%229%22%20value%3D%22%22%20style%3D%22endArrow%3Dclassic%3Bhtml%3D1%3Brounded%3D0%3BfontSize%3D12%3BstartSize%3D8%3BendSize%3D8%3Bcurved%3D1%3BexitX%3D0.5%3BexitY%3D1%3BexitDx%3D0%3BexitDy%3D0%3BentryX%3D0%3BentryY%3D0%3BentryDx%3D0%3BentryDy%3D0%3B%22%20edge%3D%221%22%20source%3D%222%22%20target%3D%224%22%20parent%3D%221%22%3E%3CmxGeometry%20width%3D%2250%22%20height%3D%2250%22%20relative%3D%221%22%20as%3D%22geometry%22%3E%3CmxPoint%20x%3D%22-348%22%20y%3D%22-71%22%20as%3D%22sourcePoint%22%2F%3E%3CmxPoint%20x%3D%22-392%22%20y%3D%22-26%22%20as%3D%22targetPoint%22%2F%3E%3C%2FmxGeometry%3E%3C%2FmxCell%3E%3CmxCell%20id%3D%2210%22%20value%3D%22%22%20style%3D%22endArrow%3Dclassic%3Bhtml%3D1%3Brounded%3D0%3BfontSize%3D12%3BstartSize%3D8%3BendSize%3D8%3Bcurved%3D1%3BexitX%3D0.305%3BexitY%3D0.983%3BexitDx%3D0%3BexitDy%3D0%3BentryX%3D0.695%3BentryY%3D0.017%3BentryDx%3D0%3BentryDy%3D0%3BentryPerimeter%3D0%3BexitPerimeter%3D0%3B%22%20edge%3D%221%22%20source%3D%223%22%20target%3D%225%22%20parent%3D%221%22%3E%3CmxGeometry%20width%3D%2250%22%20height%3D%2250%22%20relative%3D%221%22%20as%3D%22geometry%22%3E%3CmxPoint%20x%3D%22-439%22%20y%3D%2211%22%20as%3D%22sourcePoint%22%2F%3E%3CmxPoint%20x%3D%22-486%22%20y%3D%2256%22%20as%3D%22targetPoint%22%2F%3E%3C%2FmxGeometry%3E%3C%2FmxCell%3E%3CmxCell%20id%3D%2211%22%20value%3D%22%22%20style%3D%22endArrow%3Dclassic%3Bhtml%3D1%3Brounded%3D0%3BfontSize%3D12%3BstartSize%3D8%3BendSize%3D8%3Bcurved%3D1%3BexitX%3D0.5%3BexitY%3D1%3BexitDx%3D0%3BexitDy%3D0%3BentryX%3D0.288%3BentryY%3D0.051%3BentryDx%3D0%3BentryDy%3D0%3BentryPerimeter%3D0%3B%22%20edge%3D%221%22%20target%3D%226%22%20parent%3D%221%22%3E%3CmxGeometry%20width%3D%2250%22%20height%3D%2250%22%20relative%3D%221%22%20as%3D%22geometry%22%3E%3CmxPoint%20x%3D%22-418%22%20y%3D%2220%22%20as%3D%22sourcePoint%22%2F%3E%3CmxPoint%20x%3D%22-451%22%20y%3D%2280%22%20as%3D%22targetPoint%22%2F%3E%3C%2FmxGeometry%3E%3C%2FmxCell%3E%3CmxCell%20id%3D%2212%22%20value%3D%22%22%20style%3D%22endArrow%3Dclassic%3Bhtml%3D1%3Brounded%3D0%3BfontSize%3D12%3BstartSize%3D8%3BendSize%3D8%3Bcurved%3D1%3BexitX%3D0.5%3BexitY%3D1%3BexitDx%3D0%3BexitDy%3D0%3BentryX%3D0%3BentryY%3D0.373%3BentryDx%3D0%3BentryDy%3D0%3BentryPerimeter%3D0%3B%22%20edge%3D%221%22%20source%3D%225%22%20target%3D%227%22%20parent%3D%221%22%3E%3CmxGeometry%20width%3D%2250%22%20height%3D%2250%22%20relative%3D%221%22%20as%3D%22geometry%22%3E%3CmxPoint%20x%3D%22-423%22%20y%3D%22214.5%22%20as%3D%22sourcePoint%22%2F%3E%3CmxPoint%20x%3D%22-466%22%20y%3D%22266.5%22%20as%3D%22targetPoint%22%2F%3E%3C%2FmxGeometry%3E%3C%2FmxCell%3E%3CmxCell%20id%3D%2213%22%20value%3D%22%22%20style%3D%22endArrow%3Dclassic%3Bhtml%3D1%3Brounded%3D0%3BfontSize%3D12%3BstartSize%3D8%3BendSize%3D8%3Bcurved%3D1%3BexitX%3D0.305%3BexitY%3D0.983%3BexitDx%3D0%3BexitDy%3D0%3BentryX%3D0.339%3BentryY%3D0.017%3BentryDx%3D0%3BentryDy%3D0%3BentryPerimeter%3D0%3BexitPerimeter%3D0%3B%22%20edge%3D%221%22%20target%3D%227%22%20parent%3D%221%22%3E%3CmxGeometry%20width%3D%2250%22%20height%3D%2250%22%20relative%3D%221%22%20as%3D%22geometry%22%3E%3CmxPoint%20x%3D%22-349%22%20y%3D%22129%22%20as%3D%22sourcePoint%22%2F%3E%3CmxPoint%20x%3D%22-392%22%20y%3D%22181%22%20as%3D%22targetPoint%22%2F%3E%3C%2FmxGeometry%3E%3C%2FmxCell%3E%3CmxCell%20id%3D%2214%22%20value%3D%22%22%20style%3D%22endArrow%3Dclassic%3Bhtml%3D1%3Brounded%3D0%3BfontSize%3D12%3BstartSize%3D8%3BendSize%3D8%3Bcurved%3D1%3BentryX%3D1%3BentryY%3D0%3BentryDx%3D0%3BentryDy%3D0%3BexitX%3D0.542%3BexitY%3D1%3BexitDx%3D0%3BexitDy%3D0%3BexitPerimeter%3D0%3B%22%20edge%3D%221%22%20source%3D%224%22%20target%3D%227%22%20parent%3D%221%22%3E%3CmxGeometry%20width%3D%2250%22%20height%3D%2250%22%20relative%3D%221%22%20as%3D%22geometry%22%3E%3CmxPoint%20x%3D%22-279%22%20y%3D%2223%22%20as%3D%22sourcePoint%22%2F%3E%3CmxPoint%20x%3D%22-217%22%20y%3D%22168%22%20as%3D%22targetPoint%22%2F%3E%3C%2FmxGeometry%3E%3C%2FmxCell%3E%3CmxCell%20id%3D%2215%22%20value%3D%222%22%20style%3D%22text%3Bhtml%3D1%3Balign%3Dcenter%3BverticalAlign%3Dmiddle%3BwhiteSpace%3Dwrap%3Brounded%3D0%3BfontSize%3D16%3BfillColor%3D%23a20025%3BfontColor%3D%23ffffff%3BstrokeColor%3D%236F0000%3B%22%20vertex%3D%221%22%20parent%3D%221%22%3E%3CmxGeometry%20x%3D%22-375.5%22%20y%3D%22-115.75%22%20width%3D%2241%22%20height%3D%2210.5%22%20as%3D%22geometry%22%2F%3E%3C%2FmxCell%3E%3CmxCell%20id%3D%2216%22%20value%3D%224%22%20style%3D%22text%3Bhtml%3D1%3Balign%3Dcenter%3BverticalAlign%3Dmiddle%3BwhiteSpace%3Dwrap%3Brounded%3D0%3BfontSize%3D16%3BfillColor%3D%23a20025%3BfontColor%3D%23ffffff%3BstrokeColor%3D%236F0000%3B%22%20vertex%3D%221%22%20parent%3D%221%22%3E%3CmxGeometry%20x%3D%22-435%22%20y%3D%22-21.5%22%20width%3D%2235%22%20height%3D%2224%22%20as%3D%22geometry%22%2F%3E%3C%2FmxCell%3E%3CmxCell%20id%3D%2217%22%20value%3D%22%22%20style%3D%22ellipse%3BwhiteSpace%3Dwrap%3Bhtml%3D1%3Baspect%3Dfixed%3BfillColor%3D%23a20025%3BfontColor%3D%23ffffff%3BstrokeColor%3D%236F0000%3B%22%20vertex%3D%221%22%20parent%3D%221%22%3E%3CmxGeometry%20x%3D%22-388%22%20y%3D%22-255%22%20width%3D%2259%22%20height%3D%2259%22%20as%3D%22geometry%22%2F%3E%3C%2FmxCell%3E%3CmxCell%20id%3D%2218%22%20value%3D%221%22%20style%3D%22text%3Bhtml%3D1%3Balign%3Dcenter%3BverticalAlign%3Dmiddle%3BwhiteSpace%3Dwrap%3Brounded%3D0%3BfontSize%3D16%3BfillColor%3D%23a20025%3BfontColor%3D%23ffffff%3BstrokeColor%3D%236F0000%3B%22%20vertex%3D%221%22%20parent%3D%221%22%3E%3CmxGeometry%20x%3D%22-376%22%20y%3D%22-235.75%22%20width%3D%2242%22%20height%3D%2220.5%22%20as%3D%22geometry%22%2F%3E%3C%2FmxCell%3E%3CmxCell%20id%3D%2219%22%20value%3D%22%22%20style%3D%22endArrow%3Dclassic%3Bhtml%3D1%3Brounded%3D0%3BfontSize%3D12%3BstartSize%3D8%3BendSize%3D8%3Bcurved%3D1%3BexitX%3D0.5%3BexitY%3D1%3BexitDx%3D0%3BexitDy%3D0%3BentryX%3D0.5%3BentryY%3D0%3BentryDx%3D0%3BentryDy%3D0%3B%22%20edge%3D%221%22%20source%3D%2217%22%20target%3D%222%22%20parent%3D%221%22%3E%3CmxGeometry%20width%3D%2250%22%20height%3D%2250%22%20relative%3D%221%22%20as%3D%22geometry%22%3E%3CmxPoint%20x%3D%22-357%22%20y%3D%22-140%22%20as%3D%22sourcePoint%22%2F%3E%3CmxPoint%20x%3D%22-307%22%20y%3D%22-190%22%20as%3D%22targetPoint%22%2F%3E%3C%2FmxGeometry%3E%3C%2FmxCell%3E%3CmxCell%20id%3D%2220%22%20value%3D%223%22%20style%3D%22text%3Bhtml%3D1%3Balign%3Dcenter%3BverticalAlign%3Dmiddle%3BwhiteSpace%3Dwrap%3Brounded%3D0%3BfontSize%3D16%3BfillColor%3D%23a20025%3BfontColor%3D%23ffffff%3BstrokeColor%3D%236F0000%3B%22%20vertex%3D%221%22%20parent%3D%221%22%3E%3CmxGeometry%20x%3D%22-296%22%20y%3D%22-15.5%22%20width%3D%2242%22%20height%3D%2212%22%20as%3D%22geometry%22%2F%3E%3C%2FmxCell%3E%3CmxCell%20id%3D%2221%22%20value%3D%226%22%20style%3D%22text%3Bhtml%3D1%3Balign%3Dcenter%3BverticalAlign%3Dmiddle%3BwhiteSpace%3Dwrap%3Brounded%3D0%3BfontSize%3D16%3BfillColor%3D%23a20025%3BfontColor%3D%23ffffff%3BstrokeColor%3D%236F0000%3B%22%20vertex%3D%221%22%20parent%3D%221%22%3E%3CmxGeometry%20x%3D%22-378%22%20y%3D%2292%22%20width%3D%2242%22%20height%3D%2215%22%20as%3D%22geometry%22%2F%3E%3C%2FmxCell%3E%3CmxCell%20id%3D%2222%22%20value%3D%227%22%20style%3D%22text%3Bhtml%3D1%3Balign%3Dcenter%3BverticalAlign%3Dmiddle%3BwhiteSpace%3Dwrap%3Brounded%3D0%3BfontSize%3D16%3BfillColor%3D%23a20025%3BfontColor%3D%23ffffff%3BstrokeColor%3D%236F0000%3B%22%20vertex%3D%221%22%20parent%3D%221%22%3E%3CmxGeometry%20x%3D%22-325%22%20y%3D%22228.5%22%20width%3D%2246%22%20height%3D%2224%22%20as%3D%22geometry%22%2F%3E%3C%2FmxCell%3E%3CmxCell%20id%3D%2223%22%20value%3D%22cantidad%26amp%3Bgt%3B1000%22%20style%3D%22text%3Bhtml%3D1%3Balign%3Dcenter%3BverticalAlign%3Dmiddle%3BwhiteSpace%3Dwrap%3Brounded%3D0%3BfontSize%3D16%3B%22%20vertex%3D%221%22%20parent%3D%221%22%3E%3CmxGeometry%20x%3D%22-305%22%20y%3D%22-130%22%20width%3D%2260%22%20height%3D%2230%22%20as%3D%22geometry%22%2F%3E%3C%2FmxCell%3E%3CmxCell%20id%3D%2224%22%20value%3D%22cantidad%26amp%3Bgt%3B100%22%20style%3D%22text%3Bhtml%3D1%3Balign%3Dcenter%3BverticalAlign%3Dmiddle%3BwhiteSpace%3Dwrap%3Brounded%3D0%3BfontSize%3D16%3B%22%20vertex%3D%221%22%20parent%3D%221%22%3E%3CmxGeometry%20x%3D%22-531%22%20y%3D%22-24.5%22%20width%3D%2260%22%20height%3D%2230%22%20as%3D%22geometry%22%2F%3E%3C%2FmxCell%3E%3CmxCell%20id%3D%2225%22%20value%3D%22else%22%20style%3D%22text%3Bhtml%3D1%3Balign%3Dcenter%3BverticalAlign%3Dmiddle%3BwhiteSpace%3Dwrap%3Brounded%3D0%3BfontSize%3D16%3B%22%20vertex%3D%221%22%20parent%3D%221%22%3E%3CmxGeometry%20x%3D%22-396%22%20y%3D%2230%22%20width%3D%2260%22%20height%3D%2230%22%20as%3D%22geometry%22%2F%3E%3C%2FmxCell%3E%3CmxCell%20id%3D%2226%22%20value%3D%22R1%22%20style%3D%22text%3Bhtml%3D1%3Balign%3Dcenter%3BverticalAlign%3Dmiddle%3BwhiteSpace%3Dwrap%3Brounded%3D0%3BfontSize%3D16%3B%22%20vertex%3D%221%22%20parent%3D%221%22%3E%3CmxGeometry%20x%3D%22-438%22%20y%3D%22115%22%20width%3D%2260%22%20height%3D%2230%22%20as%3D%22geometry%22%2F%3E%3C%2FmxCell%3E%3CmxCell%20id%3D%2227%22%20value%3D%22R2%22%20style%3D%22text%3Bhtml%3D1%3Balign%3Dcenter%3BverticalAlign%3Dmiddle%3BwhiteSpace%3Dwrap%3Brounded%3D0%3BfontSize%3D16%3B%22%20vertex%3D%221%22%20parent%3D%221%22%3E%3CmxGeometry%20x%3D%22-341%22%20y%3D%22113%22%20width%3D%2260%22%20height%3D%2230%22%20as%3D%22geometry%22%2F%3E%3C%2FmxCell%3E%3CmxCell%20id%3D%2228%22%20value%3D%225%22%20style%3D%22text%3Bhtml%3D1%3Balign%3Dcenter%3BverticalAlign%3Dmiddle%3Bresizable%3D0%3Bpoints%3D%5B%5D%3Bautosize%3D1%3BstrokeColor%3D%236F0000%3BfillColor%3D%23a20025%3BfontSize%3D16%3BfontColor%3D%23ffffff%3B%22%20vertex%3D%221%22%20parent%3D%221%22%3E%3CmxGeometry%20x%3D%22-501%22%20y%3D%2285%22%20width%3D%2230%22%20height%3D%2230%22%20as%3D%22geometry%22%2F%3E%3C%2FmxCell%3E%3C%2Froot%3E%3C%2FmxGraphModel%3E&lt;/span&gt;&lt;span style=&quot;color: rgba(0, 0, 0, 0); font-family: monospace; font-size: 0px; text-align: start;&quot;&gt;%3CmxGraphModel%3E%3Croot%3E%3CmxCell%20id%3D%220%22%2F%3E%3CmxCell%20id%3D%221%22%20parent%3D%220%22%2F%3E%3CmxCell%20id%3D%222%22%20value%3D%22%22%20style%3D%22ellipse%3BwhiteSpace%3Dwrap%3Bhtml%3D1%3Baspect%3Dfixed%3BfillColor%3D%23a20025%3BfontColor%3D%23ffffff%3BstrokeColor%3D%236F0000%3B%22%20vertex%3D%221%22%20parent%3D%221%22%3E%3CmxGeometry%20x%3D%22-388%22%20y%3D%22-140%22%20width%3D%2259%22%20height%3D%2259%22%20as%3D%22geometry%22%2F%3E%3C%2FmxCell%3E%3CmxCell%20id%3D%223%22%20value%3D%22%22%20style%3D%22ellipse%3BwhiteSpace%3Dwrap%3Bhtml%3D1%3Baspect%3Dfixed%3BfillColor%3D%23a20025%3BfontColor%3D%23ffffff%3BstrokeColor%3D%236F0000%3B%22%20vertex%3D%221%22%20parent%3D%221%22%3E%3CmxGeometry%20x%3D%22-447%22%20y%3D%22-39%22%20width%3D%2259%22%20height%3D%2259%22%20as%3D%22geometry%22%2F%3E%3C%2FmxCell%3E%3CmxCell%20id%3D%224%22%20value%3D%22%22%20style%3D%22ellipse%3BwhiteSpace%3Dwrap%3Bhtml%3D1%3Baspect%3Dfixed%3BfillColor%3D%23a20025%3BfontColor%3D%23ffffff%3BstrokeColor%3D%236F0000%3B%22%20vertex%3D%221%22%20parent%3D%221%22%3E%3CmxGeometry%20x%3D%22-307%22%20y%3D%22-39%22%20width%3D%2259%22%20height%3D%2259%22%20as%3D%22geometry%22%2F%3E%3C%2FmxCell%3E%3CmxCell%20id%3D%225%22%20value%3D%22%22%20style%3D%22ellipse%3BwhiteSpace%3Dwrap%3Bhtml%3D1%3Baspect%3Dfixed%3BfillColor%3D%23a20025%3BstrokeColor%3D%236F0000%3BfontColor%3D%23ffffff%3B%22%20vertex%3D%221%22%20parent%3D%221%22%3E%3CmxGeometry%20x%3D%22-513%22%20y%3D%2270%22%20width%3D%2259%22%20height%3D%2259%22%20as%3D%22geometry%22%2F%3E%3C%2FmxCell%3E%3CmxCell%20id%3D%226%22%20value%3D%22%22%20style%3D%22ellipse%3BwhiteSpace%3Dwrap%3Bhtml%3D1%3Baspect%3Dfixed%3BfillColor%3D%23a20025%3BfontColor%3D%23ffffff%3BstrokeColor%3D%236F0000%3B%22%20vertex%3D%221%22%20parent%3D%221%22%3E%3CmxGeometry%20x%3D%22-388%22%20y%3D%2270%22%20width%3D%2259%22%20height%3D%2259%22%20as%3D%22geometry%22%2F%3E%3C%2FmxCell%3E%3CmxCell%20id%3D%227%22%20value%3D%22%22%20style%3D%22ellipse%3BwhiteSpace%3Dwrap%3Bhtml%3D1%3Baspect%3Dfixed%3BfillColor%3D%23a20025%3BfontColor%3D%23ffffff%3BstrokeColor%3D%236F0000%3B%22%20vertex%3D%221%22%20parent%3D%221%22%3E%3CmxGeometry%20x%3D%22-329%22%20y%3D%22211%22%20width%3D%2259%22%20height%3D%2259%22%20as%3D%22geometry%22%2F%3E%3C%2FmxCell%3E%3CmxCell%20id%3D%228%22%20value%3D%22%22%20style%3D%22endArrow%3Dclassic%3Bhtml%3D1%3Brounded%3D0%3BfontSize%3D12%3BstartSize%3D8%3BendSize%3D8%3Bcurved%3D1%3BexitX%3D0.5%3BexitY%3D1%3BexitDx%3D0%3BexitDy%3D0%3BentryX%3D0.712%3BentryY%3D0.051%3BentryDx%3D0%3BentryDy%3D0%3BentryPerimeter%3D0%3B%22%20edge%3D%221%22%20source%3D%222%22%20target%3D%223%22%20parent%3D%221%22%3E%3CmxGeometry%20width%3D%2250%22%20height%3D%2250%22%20relative%3D%221%22%20as%3D%22geometry%22%3E%3CmxPoint%20x%3D%22-400%22%20y%3D%223%22%20as%3D%22sourcePoint%22%2F%3E%3CmxPoint%20x%3D%22-350%22%20y%3D%22-47%22%20as%3D%22targetPoint%22%2F%3E%3C%2FmxGeometry%3E%3C%2FmxCell%3E%3CmxCell%20id%3D%229%22%20value%3D%22%22%20style%3D%22endArrow%3Dclassic%3Bhtml%3D1%3Brounded%3D0%3BfontSize%3D12%3BstartSize%3D8%3BendSize%3D8%3Bcurved%3D1%3BexitX%3D0.5%3BexitY%3D1%3BexitDx%3D0%3BexitDy%3D0%3BentryX%3D0%3BentryY%3D0%3BentryDx%3D0%3BentryDy%3D0%3B%22%20edge%3D%221%22%20source%3D%222%22%20target%3D%224%22%20parent%3D%221%22%3E%3CmxGeometry%20width%3D%2250%22%20height%3D%2250%22%20relative%3D%221%22%20as%3D%22geometry%22%3E%3CmxPoint%20x%3D%22-348%22%20y%3D%22-71%22%20as%3D%22sourcePoint%22%2F%3E%3CmxPoint%20x%3D%22-392%22%20y%3D%22-26%22%20as%3D%22targetPoint%22%2F%3E%3C%2FmxGeometry%3E%3C%2FmxCell%3E%3CmxCell%20id%3D%2210%22%20value%3D%22%22%20style%3D%22endArrow%3Dclassic%3Bhtml%3D1%3Brounded%3D0%3BfontSize%3D12%3BstartSize%3D8%3BendSize%3D8%3Bcurved%3D1%3BexitX%3D0.305%3BexitY%3D0.983%3BexitDx%3D0%3BexitDy%3D0%3BentryX%3D0.695%3BentryY%3D0.017%3BentryDx%3D0%3BentryDy%3D0%3BentryPerimeter%3D0%3BexitPerimeter%3D0%3B%22%20edge%3D%221%22%20source%3D%223%22%20target%3D%225%22%20parent%3D%221%22%3E%3CmxGeometry%20width%3D%2250%22%20height%3D%2250%22%20relative%3D%221%22%20as%3D%22geometry%22%3E%3CmxPoint%20x%3D%22-439%22%20y%3D%2211%22%20as%3D%22sourcePoint%22%2F%3E%3CmxPoint%20x%3D%22-486%22%20y%3D%2256%22%20as%3D%22targetPoint%22%2F%3E%3C%2FmxGeometry%3E%3C%2FmxCell%3E%3CmxCell%20id%3D%2211%22%20value%3D%22%22%20style%3D%22endArrow%3Dclassic%3Bhtml%3D1%3Brounded%3D0%3BfontSize%3D12%3BstartSize%3D8%3BendSize%3D8%3Bcurved%3D1%3BexitX%3D0.5%3BexitY%3D1%3BexitDx%3D0%3BexitDy%3D0%3BentryX%3D0.288%3BentryY%3D0.051%3BentryDx%3D0%3BentryDy%3D0%3BentryPerimeter%3D0%3B%22%20edge%3D%221%22%20target%3D%226%22%20parent%3D%221%22%3E%3CmxGeometry%20width%3D%2250%22%20height%3D%2250%22%20relative%3D%221%22%20as%3D%22geometry%22%3E%3CmxPoint%20x%3D%22-418%22%20y%3D%2220%22%20as%3D%22sourcePoint%22%2F%3E%3CmxPoint%20x%3D%22-451%22%20y%3D%2280%22%20as%3D%22targetPoint%22%2F%3E%3C%2FmxGeometry%3E%3C%2FmxCell%3E%3CmxCell%20id%3D%2212%22%20value%3D%22%22%20style%3D%22endArrow%3Dclassic%3Bhtml%3D1%3Brounded%3D0%3BfontSize%3D12%3BstartSize%3D8%3BendSize%3D8%3Bcurved%3D1%3BexitX%3D0.5%3BexitY%3D1%3BexitDx%3D0%3BexitDy%3D0%3BentryX%3D0%3BentryY%3D0.373%3BentryDx%3D0%3BentryDy%3D0%3BentryPerimeter%3D0%3B%22%20edge%3D%221%22%20source%3D%225%22%20target%3D%227%22%20parent%3D%221%22%3E%3CmxGeometry%20width%3D%2250%22%20height%3D%2250%22%20relative%3D%221%22%20as%3D%22geometry%22%3E%3CmxPoint%20x%3D%22-423%22%20y%3D%22214.5%22%20as%3D%22sourcePoint%22%2F%3E%3CmxPoint%20x%3D%22-466%22%20y%3D%22266.5%22%20as%3D%22targetPoint%22%2F%3E%3C%2FmxGeometry%3E%3C%2FmxCell%3E%3CmxCell%20id%3D%2213%22%20value%3D%22%22%20style%3D%22endArrow%3Dclassic%3Bhtml%3D1%3Brounded%3D0%3BfontSize%3D12%3BstartSize%3D8%3BendSize%3D8%3Bcurved%3D1%3BexitX%3D0.305%3BexitY%3D0.983%3BexitDx%3D0%3BexitDy%3D0%3BentryX%3D0.339%3BentryY%3D0.017%3BentryDx%3D0%3BentryDy%3D0%3BentryPerimeter%3D0%3BexitPerimeter%3D0%3B%22%20edge%3D%221%22%20target%3D%227%22%20parent%3D%221%22%3E%3CmxGeometry%20width%3D%2250%22%20height%3D%2250%22%20relative%3D%221%22%20as%3D%22geometry%22%3E%3CmxPoint%20x%3D%22-349%22%20y%3D%22129%22%20as%3D%22sourcePoint%22%2F%3E%3CmxPoint%20x%3D%22-392%22%20y%3D%22181%22%20as%3D%22targetPoint%22%2F%3E%3C%2FmxGeometry%3E%3C%2FmxCell%3E%3CmxCell%20id%3D%2214%22%20value%3D%22%22%20style%3D%22endArrow%3Dclassic%3Bhtml%3D1%3Brounded%3D0%3BfontSize%3D12%3BstartSize%3D8%3BendSize%3D8%3Bcurved%3D1%3BentryX%3D1%3BentryY%3D0%3BentryDx%3D0%3BentryDy%3D0%3BexitX%3D0.542%3BexitY%3D1%3BexitDx%3D0%3BexitDy%3D0%3BexitPerimeter%3D0%3B%22%20edge%3D%221%22%20source%3D%224%22%20target%3D%227%22%20parent%3D%221%22%3E%3CmxGeometry%20width%3D%2250%22%20height%3D%2250%22%20relative%3D%221%22%20as%3D%22geometry%22%3E%3CmxPoint%20x%3D%22-279%22%20y%3D%2223%22%20as%3D%22sourcePoint%22%2F%3E%3CmxPoint%20x%3D%22-217%22%20y%3D%22168%22%20as%3D%22targetPoint%22%2F%3E%3C%2FmxGeometry%3E%3C%2FmxCell%3E%3CmxCell%20id%3D%2215%22%20value%3D%222%22%20style%3D%22text%3Bhtml%3D1%3Balign%3Dcenter%3BverticalAlign%3Dmiddle%3BwhiteSpace%3Dwrap%3Brounded%3D0%3BfontSize%3D16%3BfillColor%3D%23a20025%3BfontColor%3D%23ffffff%3BstrokeColor%3D%236F0000%3B%22%20vertex%3D%221%22%20parent%3D%221%22%3E%3CmxGeometry%20x%3D%22-375.5%22%20y%3D%22-115.75%22%20width%3D%2241%22%20height%3D%2210.5%22%20as%3D%22geometry%22%2F%3E%3C%2FmxCell%3E%3CmxCell%20id%3D%2216%22%20value%3D%224%22%20style%3D%22text%3Bhtml%3D1%3Balign%3Dcenter%3BverticalAlign%3Dmiddle%3BwhiteSpace%3Dwrap%3Brounded%3D0%3BfontSize%3D16%3BfillColor%3D%23a20025%3BfontColor%3D%23ffffff%3BstrokeColor%3D%236F0000%3B%22%20vertex%3D%221%22%20parent%3D%221%22%3E%3CmxGeometry%20x%3D%22-435%22%20y%3D%22-21.5%22%20width%3D%2235%22%20height%3D%2224%22%20as%3D%22geometry%22%2F%3E%3C%2FmxCell%3E%3CmxCell%20id%3D%2217%22%20value%3D%22%22%20style%3D%22ellipse%3BwhiteSpace%3Dwrap%3Bhtml%3D1%3Baspect%3Dfixed%3BfillColor%3D%23a20025%3BfontColor%3D%23ffffff%3BstrokeColor%3D%236F0000%3B%22%20vertex%3D%221%22%20parent%3D%221%22%3E%3CmxGeometry%20x%3D%22-388%22%20y%3D%22-255%22%20width%3D%2259%22%20height%3D%2259%22%20as%3D%22geometry%22%2F%3E%3C%2FmxCell%3E%3CmxCell%20id%3D%2218%22%20value%3D%221%22%20style%3D%22text%3Bhtml%3D1%3Balign%3Dcenter%3BverticalAlign%3Dmiddle%3BwhiteSpace%3Dwrap%3Brounded%3D0%3BfontSize%3D16%3BfillColor%3D%23a20025%3BfontColor%3D%23ffffff%3BstrokeColor%3D%236F0000%3B%22%20vertex%3D%221%22%20parent%3D%221%22%3E%3CmxGeometry%20x%3D%22-376%22%20y%3D%22-235.75%22%20width%3D%2242%22%20height%3D%2220.5%22%20as%3D%22geometry%22%2F%3E%3C%2FmxCell%3E%3CmxCell%20id%3D%2219%22%20value%3D%22%22%20style%3D%22endArrow%3Dclassic%3Bhtml%3D1%3Brounded%3D0%3BfontSize%3D12%3BstartSize%3D8%3BendSize%3D8%3Bcurved%3D1%3BexitX%3D0.5%3BexitY%3D1%3BexitDx%3D0%3BexitDy%3D0%3BentryX%3D0.5%3BentryY%3D0%3BentryDx%3D0%3BentryDy%3D0%3B%22%20edge%3D%221%22%20source%3D%2217%22%20target%3D%222%22%20parent%3D%221%22%3E%3CmxGeometry%20width%3D%2250%22%20height%3D%2250%22%20relative%3D%221%22%20as%3D%22geometry%22%3E%3CmxPoint%20x%3D%22-357%22%20y%3D%22-140%22%20as%3D%22sourcePoint%22%2F%3E%3CmxPoint%20x%3D%22-307%22%20y%3D%22-190%22%20as%3D%22targetPoint%22%2F%3E%3C%2FmxGeometry%3E%3C%2FmxCell%3E%3CmxCell%20id%3D%2220%22%20value%3D%223%22%20style%3D%22text%3Bhtml%3D1%3Balign%3Dcenter%3BverticalAlign%3Dmiddle%3BwhiteSpace%3Dwrap%3Brounded%3D0%3BfontSize%3D16%3BfillColor%3D%23a20025%3BfontColor%3D%23ffffff%3BstrokeColor%3D%236F0000%3B%22%20vertex%3D%221%22%20parent%3D%221%22%3E%3CmxGeometry%20x%3D%22-296%22%20y%3D%22-15.5%22%20width%3D%2242%22%20height%3D%2212%22%20as%3D%22geometry%22%2F%3E%3C%2FmxCell%3E%3CmxCell%20id%3D%2221%22%20value%3D%226%22%20style%3D%22text%3Bhtml%3D1%3Balign%3Dcenter%3BverticalAlign%3Dmiddle%3BwhiteSpace%3Dwrap%3Brounded%3D0%3BfontSize%3D16%3BfillColor%3D%23a20025%3BfontColor%3D%23ffffff%3BstrokeColor%3D%236F0000%3B%22%20vertex%3D%221%22%20parent%3D%221%22%3E%3CmxGeometry%20x%3D%22-378%22%20y%3D%2292%22%20width%3D%2242%22%20height%3D%2215%22%20as%3D%22geometry%22%2F%3E%3C%2FmxCell%3E%3CmxCell%20id%3D%2222%22%20value%3D%227%22%20style%3D%22text%3Bhtml%3D1%3Balign%3Dcenter%3BverticalAlign%3Dmiddle%3BwhiteSpace%3Dwrap%3Brounded%3D0%3BfontSize%3D16%3BfillColor%3D%23a20025%3BfontColor%3D%23ffffff%3BstrokeColor%3D%236F0000%3B%22%20vertex%3D%221%22%20parent%3D%221%22%3E%3CmxGeometry%20x%3D%22-325%22%20y%3D%22228.5%22%20width%3D%2246%22%20height%3D%2224%22%20as%3D%22geometry%22%2F%3E%3C%2FmxCell%3E%3CmxCell%20id%3D%2223%22%20value%3D%22cantidad%26amp%3Bgt%3B1000%22%20style%3D%22text%3Bhtml%3D1%3Balign%3Dcenter%3BverticalAlign%3Dmiddle%3BwhiteSpace%3Dwrap%3Brounded%3D0%3BfontSize%3D16%3B%22%20vertex%3D%221%22%20parent%3D%221%22%3E%3CmxGeometry%20x%3D%22-305%22%20y%3D%22-130%22%20width%3D%2260%22%20height%3D%2230%22%20as%3D%22geometry%22%2F%3E%3C%2FmxCell%3E%3CmxCell%20id%3D%2224%22%20value%3D%22cantidad%26amp%3Bgt%3B100%22%20style%3D%22text%3Bhtml%3D1%3Balign%3Dcenter%3BverticalAlign%3Dmiddle%3BwhiteSpace%3Dwrap%3Brounded%3D0%3BfontSize%3D16%3B%22%20vertex%3D%221%22%20parent%3D%221%22%3E%3CmxGeometry%20x%3D%22-531%22%20y%3D%22-24.5%22%20width%3D%2260%22%20height%3D%2230%22%20as%3D%22geometry%22%2F%3E%3C%2FmxCell%3E%3CmxCell%20id%3D%2225%22%20value%3D%22else%22%20style%3D%22text%3Bhtml%3D1%3Balign%3Dcenter%3BverticalAlign%3Dmiddle%3BwhiteSpace%3Dwrap%3Brounded%3D0%3BfontSize%3D16%3B%22%20vertex%3D%221%22%20parent%3D%221%22%3E%3CmxGeometry%20x%3D%22-396%22%20y%3D%2230%22%20width%3D%2260%22%20height%3D%2230%22%20as%3D%22geometry%22%2F%3E%3C%2FmxCell%3E%3CmxCell%20id%3D%2226%22%20value%3D%22R1%22%20style%3D%22text%3Bhtml%3D1%3Balign%3Dcenter%3BverticalAlign%3Dmiddle%3BwhiteSpace%3Dwrap%3Brounded%3D0%3BfontSize%3D16%3B%22%20vertex%3D%221%22%20parent%3D%221%22%3E%3CmxGeometry%20x%3D%22-438%22%20y%3D%22115%22%20width%3D%2260%22%20height%3D%2230%22%20as%3D%22geometry%22%2F%3E%3C%2FmxCell%3E%3CmxCell%20id%3D%2227%22%20value%3D%22R2%22%20style%3D%22text%3Bhtml%3D1%3Balign%3Dcenter%3BverticalAlign%3Dmiddle%3BwhiteSpace%3Dwrap%3Brounded%3D0%3BfontSize%3D16%3B%22%20vertex%3D%221%22%20parent%3D%221%22%3E%3CmxGeometry%20x%3D%22-341%22%20y%3D%22113%22%20width%3D%2260%22%20height%3D%2230%22%20as%3D%22geometry%22%2F%3E%3C%2FmxCell%3E%3CmxCell%20id%3D%2228%22%20value%3D%225%22%20style%3D%22text%3Bhtml%3D1%3Balign%3Dcenter%3BverticalAlign%3Dmiddle%3Bresizable%3D0%3Bpoints%3D%5B%5D%3Bautosize%3D1%3BstrokeColor%3D%236F0000%3BfillColor%3D%23a20025%3BfontSize%3D16%3BfontColor%3D%23ffffff%3B%22%20vertex%3D%221%22%20parent%3D%221%22%3E%3CmxGeometry%20x%3D%22-501%22%20y%3D%2285%22%20width%3D%2230%22%20height%3D%2230%22%20as%3D%22geometry%22%2F%3E%3C%2FmxCell%3E%3C%2Froot%3E%3C%2FmxGraphModel%3E&lt;/span&gt;" style="text;html=1;align=center;verticalAlign=middle;resizable=0;points=[];autosize=1;strokeColor=none;fillColor=none;fontSize=16;" vertex="1" parent="1">
          <mxGeometry x="384" y="91" width="20" height="30" as="geometry" />
        </mxCell>
        <mxCell id="oUDWL8CgOT2m1cm1Y60V-59" value="" style="ellipse;whiteSpace=wrap;html=1;aspect=fixed;fillColor=#a20025;fontColor=#ffffff;strokeColor=#6F0000;" vertex="1" parent="1">
          <mxGeometry x="-388" y="-442" width="59" height="59" as="geometry" />
        </mxCell>
        <mxCell id="oUDWL8CgOT2m1cm1Y60V-60" value="" style="ellipse;whiteSpace=wrap;html=1;aspect=fixed;fillColor=#a20025;fontColor=#ffffff;strokeColor=#6F0000;" vertex="1" parent="1">
          <mxGeometry x="-447" y="-341" width="59" height="59" as="geometry" />
        </mxCell>
        <mxCell id="oUDWL8CgOT2m1cm1Y60V-61" value="" style="ellipse;whiteSpace=wrap;html=1;aspect=fixed;fillColor=#a20025;fontColor=#ffffff;strokeColor=#6F0000;" vertex="1" parent="1">
          <mxGeometry x="-307" y="-341" width="59" height="59" as="geometry" />
        </mxCell>
        <mxCell id="oUDWL8CgOT2m1cm1Y60V-62" value="" style="ellipse;whiteSpace=wrap;html=1;aspect=fixed;fillColor=#a20025;strokeColor=#6F0000;fontColor=#ffffff;" vertex="1" parent="1">
          <mxGeometry x="-513" y="-232" width="59" height="59" as="geometry" />
        </mxCell>
        <mxCell id="oUDWL8CgOT2m1cm1Y60V-63" value="" style="ellipse;whiteSpace=wrap;html=1;aspect=fixed;fillColor=#a20025;fontColor=#ffffff;strokeColor=#6F0000;" vertex="1" parent="1">
          <mxGeometry x="-388" y="-232" width="59" height="59" as="geometry" />
        </mxCell>
        <mxCell id="oUDWL8CgOT2m1cm1Y60V-64" value="" style="ellipse;whiteSpace=wrap;html=1;aspect=fixed;fillColor=#a20025;fontColor=#ffffff;strokeColor=#6F0000;" vertex="1" parent="1">
          <mxGeometry x="-329" y="-91" width="59" height="59" as="geometry" />
        </mxCell>
        <mxCell id="oUDWL8CgOT2m1cm1Y60V-65" value="" style="endArrow=classic;html=1;rounded=0;fontSize=12;startSize=8;endSize=8;curved=1;exitX=0.5;exitY=1;exitDx=0;exitDy=0;entryX=0.712;entryY=0.051;entryDx=0;entryDy=0;entryPerimeter=0;" edge="1" parent="1" source="oUDWL8CgOT2m1cm1Y60V-59" target="oUDWL8CgOT2m1cm1Y60V-60">
          <mxGeometry width="50" height="50" relative="1" as="geometry">
            <mxPoint x="-400" y="-299" as="sourcePoint" />
            <mxPoint x="-350" y="-349" as="targetPoint" />
          </mxGeometry>
        </mxCell>
        <mxCell id="oUDWL8CgOT2m1cm1Y60V-66" value="" style="endArrow=classic;html=1;rounded=0;fontSize=12;startSize=8;endSize=8;curved=1;exitX=0.5;exitY=1;exitDx=0;exitDy=0;entryX=0;entryY=0;entryDx=0;entryDy=0;" edge="1" parent="1" source="oUDWL8CgOT2m1cm1Y60V-59" target="oUDWL8CgOT2m1cm1Y60V-61">
          <mxGeometry width="50" height="50" relative="1" as="geometry">
            <mxPoint x="-348" y="-373" as="sourcePoint" />
            <mxPoint x="-392" y="-328" as="targetPoint" />
          </mxGeometry>
        </mxCell>
        <mxCell id="oUDWL8CgOT2m1cm1Y60V-67" value="" style="endArrow=classic;html=1;rounded=0;fontSize=12;startSize=8;endSize=8;curved=1;exitX=0.305;exitY=0.983;exitDx=0;exitDy=0;entryX=0.695;entryY=0.017;entryDx=0;entryDy=0;entryPerimeter=0;exitPerimeter=0;" edge="1" parent="1" source="oUDWL8CgOT2m1cm1Y60V-60" target="oUDWL8CgOT2m1cm1Y60V-62">
          <mxGeometry width="50" height="50" relative="1" as="geometry">
            <mxPoint x="-439" y="-291" as="sourcePoint" />
            <mxPoint x="-486" y="-246" as="targetPoint" />
          </mxGeometry>
        </mxCell>
        <mxCell id="oUDWL8CgOT2m1cm1Y60V-68" value="" style="endArrow=classic;html=1;rounded=0;fontSize=12;startSize=8;endSize=8;curved=1;exitX=0.5;exitY=1;exitDx=0;exitDy=0;entryX=0.288;entryY=0.051;entryDx=0;entryDy=0;entryPerimeter=0;" edge="1" parent="1" target="oUDWL8CgOT2m1cm1Y60V-63">
          <mxGeometry width="50" height="50" relative="1" as="geometry">
            <mxPoint x="-418" y="-282" as="sourcePoint" />
            <mxPoint x="-451" y="-222" as="targetPoint" />
          </mxGeometry>
        </mxCell>
        <mxCell id="oUDWL8CgOT2m1cm1Y60V-69" value="" style="endArrow=classic;html=1;rounded=0;fontSize=12;startSize=8;endSize=8;curved=1;exitX=0.5;exitY=1;exitDx=0;exitDy=0;entryX=0;entryY=0.373;entryDx=0;entryDy=0;entryPerimeter=0;" edge="1" parent="1" source="oUDWL8CgOT2m1cm1Y60V-62" target="oUDWL8CgOT2m1cm1Y60V-64">
          <mxGeometry width="50" height="50" relative="1" as="geometry">
            <mxPoint x="-423" y="-87.5" as="sourcePoint" />
            <mxPoint x="-466" y="-35.5" as="targetPoint" />
          </mxGeometry>
        </mxCell>
        <mxCell id="oUDWL8CgOT2m1cm1Y60V-70" value="" style="endArrow=classic;html=1;rounded=0;fontSize=12;startSize=8;endSize=8;curved=1;exitX=0.305;exitY=0.983;exitDx=0;exitDy=0;entryX=0.339;entryY=0.017;entryDx=0;entryDy=0;entryPerimeter=0;exitPerimeter=0;" edge="1" parent="1" target="oUDWL8CgOT2m1cm1Y60V-64">
          <mxGeometry width="50" height="50" relative="1" as="geometry">
            <mxPoint x="-349" y="-173" as="sourcePoint" />
            <mxPoint x="-392" y="-121" as="targetPoint" />
          </mxGeometry>
        </mxCell>
        <mxCell id="oUDWL8CgOT2m1cm1Y60V-71" value="" style="endArrow=classic;html=1;rounded=0;fontSize=12;startSize=8;endSize=8;curved=1;entryX=1;entryY=0;entryDx=0;entryDy=0;exitX=0.542;exitY=1;exitDx=0;exitDy=0;exitPerimeter=0;" edge="1" parent="1" source="oUDWL8CgOT2m1cm1Y60V-61" target="oUDWL8CgOT2m1cm1Y60V-64">
          <mxGeometry width="50" height="50" relative="1" as="geometry">
            <mxPoint x="-279" y="-279" as="sourcePoint" />
            <mxPoint x="-217" y="-134" as="targetPoint" />
          </mxGeometry>
        </mxCell>
        <mxCell id="oUDWL8CgOT2m1cm1Y60V-72" value="2" style="text;html=1;align=center;verticalAlign=middle;whiteSpace=wrap;rounded=0;fontSize=16;fillColor=#a20025;fontColor=#ffffff;strokeColor=#6F0000;" vertex="1" parent="1">
          <mxGeometry x="-375.5" y="-417.75" width="41" height="10.5" as="geometry" />
        </mxCell>
        <mxCell id="oUDWL8CgOT2m1cm1Y60V-73" value="4" style="text;html=1;align=center;verticalAlign=middle;whiteSpace=wrap;rounded=0;fontSize=16;fillColor=#a20025;fontColor=#ffffff;strokeColor=#6F0000;" vertex="1" parent="1">
          <mxGeometry x="-435" y="-323.5" width="35" height="24" as="geometry" />
        </mxCell>
        <mxCell id="oUDWL8CgOT2m1cm1Y60V-74" value="" style="ellipse;whiteSpace=wrap;html=1;aspect=fixed;fillColor=#a20025;fontColor=#ffffff;strokeColor=#6F0000;" vertex="1" parent="1">
          <mxGeometry x="-388" y="-557" width="59" height="59" as="geometry" />
        </mxCell>
        <mxCell id="oUDWL8CgOT2m1cm1Y60V-75" value="1" style="text;html=1;align=center;verticalAlign=middle;whiteSpace=wrap;rounded=0;fontSize=16;fillColor=#a20025;fontColor=#ffffff;strokeColor=#6F0000;" vertex="1" parent="1">
          <mxGeometry x="-376" y="-537.75" width="42" height="20.5" as="geometry" />
        </mxCell>
        <mxCell id="oUDWL8CgOT2m1cm1Y60V-76" value="" style="endArrow=classic;html=1;rounded=0;fontSize=12;startSize=8;endSize=8;curved=1;exitX=0.5;exitY=1;exitDx=0;exitDy=0;entryX=0.5;entryY=0;entryDx=0;entryDy=0;" edge="1" parent="1" source="oUDWL8CgOT2m1cm1Y60V-74" target="oUDWL8CgOT2m1cm1Y60V-59">
          <mxGeometry width="50" height="50" relative="1" as="geometry">
            <mxPoint x="-357" y="-442" as="sourcePoint" />
            <mxPoint x="-307" y="-492" as="targetPoint" />
          </mxGeometry>
        </mxCell>
        <mxCell id="oUDWL8CgOT2m1cm1Y60V-77" value="3" style="text;html=1;align=center;verticalAlign=middle;whiteSpace=wrap;rounded=0;fontSize=16;fillColor=#a20025;fontColor=#ffffff;strokeColor=#6F0000;" vertex="1" parent="1">
          <mxGeometry x="-296" y="-317.5" width="42" height="12" as="geometry" />
        </mxCell>
        <mxCell id="oUDWL8CgOT2m1cm1Y60V-78" value="6" style="text;html=1;align=center;verticalAlign=middle;whiteSpace=wrap;rounded=0;fontSize=16;fillColor=#a20025;fontColor=#ffffff;strokeColor=#6F0000;" vertex="1" parent="1">
          <mxGeometry x="-378" y="-210" width="42" height="15" as="geometry" />
        </mxCell>
        <mxCell id="oUDWL8CgOT2m1cm1Y60V-79" value="7" style="text;html=1;align=center;verticalAlign=middle;whiteSpace=wrap;rounded=0;fontSize=16;fillColor=#a20025;fontColor=#ffffff;strokeColor=#6F0000;" vertex="1" parent="1">
          <mxGeometry x="-325" y="-73.5" width="46" height="24" as="geometry" />
        </mxCell>
        <mxCell id="oUDWL8CgOT2m1cm1Y60V-80" value="cantidad&amp;gt;1000" style="text;html=1;align=center;verticalAlign=middle;whiteSpace=wrap;rounded=0;fontSize=16;" vertex="1" parent="1">
          <mxGeometry x="-305" y="-432" width="60" height="30" as="geometry" />
        </mxCell>
        <mxCell id="oUDWL8CgOT2m1cm1Y60V-81" value="cantidad&amp;gt;100" style="text;html=1;align=center;verticalAlign=middle;whiteSpace=wrap;rounded=0;fontSize=16;" vertex="1" parent="1">
          <mxGeometry x="-531" y="-326.5" width="60" height="30" as="geometry" />
        </mxCell>
        <mxCell id="oUDWL8CgOT2m1cm1Y60V-82" value="else" style="text;html=1;align=center;verticalAlign=middle;whiteSpace=wrap;rounded=0;fontSize=16;" vertex="1" parent="1">
          <mxGeometry x="-396" y="-272" width="60" height="30" as="geometry" />
        </mxCell>
        <mxCell id="oUDWL8CgOT2m1cm1Y60V-83" value="R1" style="text;html=1;align=center;verticalAlign=middle;whiteSpace=wrap;rounded=0;fontSize=16;" vertex="1" parent="1">
          <mxGeometry x="-438" y="-187" width="60" height="30" as="geometry" />
        </mxCell>
        <mxCell id="oUDWL8CgOT2m1cm1Y60V-84" value="R2" style="text;html=1;align=center;verticalAlign=middle;whiteSpace=wrap;rounded=0;fontSize=16;" vertex="1" parent="1">
          <mxGeometry x="-341" y="-189" width="60" height="30" as="geometry" />
        </mxCell>
        <mxCell id="oUDWL8CgOT2m1cm1Y60V-85" value="5" style="text;html=1;align=center;verticalAlign=middle;resizable=0;points=[];autosize=1;strokeColor=#6F0000;fillColor=#a20025;fontSize=16;fontColor=#ffffff;" vertex="1" parent="1">
          <mxGeometry x="-501" y="-217" width="30" height="30" as="geometry" />
        </mxCell>
        <mxCell id="oUDWL8CgOT2m1cm1Y60V-156" value="Assets" style="childLayout=tableLayout;recursiveResize=0;strokeColor=#98bf21;fillColor=#A7C942;shadow=1;" vertex="1" parent="1">
          <mxGeometry x="-730" y="-980" width="710" height="337" as="geometry" />
        </mxCell>
        <mxCell id="oUDWL8CgOT2m1cm1Y60V-157" style="shape=tableRow;horizontal=0;startSize=0;swimlaneHead=0;swimlaneBody=0;top=0;left=0;bottom=0;right=0;dropTarget=0;collapsible=0;recursiveResize=0;expand=0;fontStyle=0;strokeColor=inherit;fillColor=#ffffff;" vertex="1" parent="oUDWL8CgOT2m1cm1Y60V-156">
          <mxGeometry width="710" height="76" as="geometry" />
        </mxCell>
        <mxCell id="oUDWL8CgOT2m1cm1Y60V-158" value="Condiciones de&lt;div&gt;&amp;nbsp;entrada&lt;/div&gt;" style="connectable=0;recursiveResize=0;strokeColor=inherit;fillColor=#A7C942;align=center;fontStyle=1;fontColor=#FFFFFF;html=1;" vertex="1" parent="oUDWL8CgOT2m1cm1Y60V-157">
          <mxGeometry width="170" height="76" as="geometry">
            <mxRectangle width="170" height="76" as="alternateBounds" />
          </mxGeometry>
        </mxCell>
        <mxCell id="oUDWL8CgOT2m1cm1Y60V-159" value="NÂ° de Clases de equivalencia vÃ¡lida" style="connectable=0;recursiveResize=0;strokeColor=inherit;fillColor=#A7C942;align=center;fontStyle=1;fontColor=#FFFFFF;html=1;" vertex="1" parent="oUDWL8CgOT2m1cm1Y60V-157">
          <mxGeometry x="170" width="310" height="76" as="geometry">
            <mxRectangle width="310" height="76" as="alternateBounds" />
          </mxGeometry>
        </mxCell>
        <mxCell id="oUDWL8CgOT2m1cm1Y60V-160" value="NÂ° de Clases de equivalencia no vÃ¡lidas" style="connectable=0;recursiveResize=0;strokeColor=inherit;fillColor=#A7C942;align=center;fontStyle=1;fontColor=#FFFFFF;html=1;" vertex="1" parent="oUDWL8CgOT2m1cm1Y60V-157">
          <mxGeometry x="480" width="230" height="76" as="geometry">
            <mxRectangle width="230" height="76" as="alternateBounds" />
          </mxGeometry>
        </mxCell>
        <mxCell id="oUDWL8CgOT2m1cm1Y60V-161" value="" style="shape=tableRow;horizontal=0;startSize=0;swimlaneHead=0;swimlaneBody=0;top=0;left=0;bottom=0;right=0;dropTarget=0;collapsible=0;recursiveResize=0;expand=0;fontStyle=0;strokeColor=inherit;fillColor=#ffffff;" vertex="1" parent="oUDWL8CgOT2m1cm1Y60V-156">
          <mxGeometry y="76" width="710" height="46" as="geometry" />
        </mxCell>
        <mxCell id="oUDWL8CgOT2m1cm1Y60V-162" value="1.CÃ³digo de banco" style="connectable=0;recursiveResize=0;strokeColor=inherit;fillColor=inherit;align=center;whiteSpace=wrap;html=1;" vertex="1" parent="oUDWL8CgOT2m1cm1Y60V-161">
          <mxGeometry width="170" height="46" as="geometry">
            <mxRectangle width="170" height="46" as="alternateBounds" />
          </mxGeometry>
        </mxCell>
        <mxCell id="oUDWL8CgOT2m1cm1Y60V-163" value="&lt;div style=&quot;&quot;&gt;&lt;span style=&quot;background-color: initial;&quot;&gt;&amp;nbsp; &amp;nbsp; &amp;nbsp; &amp;nbsp; &amp;nbsp; &amp;nbsp; &amp;nbsp; &amp;nbsp; &amp;nbsp; &amp;nbsp; &amp;nbsp; &amp;nbsp; &amp;nbsp; &amp;nbsp; &amp;nbsp; -No ven blanco&lt;/span&gt;&lt;/div&gt;&lt;div style=&quot;&quot;&gt;-Cualquier numero de 3 dÃ­gitos&lt;/div&gt;&lt;div style=&quot;&quot;&gt;-El primer dÃ­gito debe ser mayor que 1&lt;/div&gt;" style="connectable=0;recursiveResize=0;strokeColor=inherit;fillColor=inherit;align=left;whiteSpace=wrap;html=1;" vertex="1" parent="oUDWL8CgOT2m1cm1Y60V-161">
          <mxGeometry x="170" width="310" height="46" as="geometry">
            <mxRectangle width="310" height="46" as="alternateBounds" />
          </mxGeometry>
        </mxCell>
        <mxCell id="oUDWL8CgOT2m1cm1Y60V-164" value="Value 3" style="connectable=0;recursiveResize=0;strokeColor=inherit;fillColor=inherit;align=center;whiteSpace=wrap;html=1;" vertex="1" parent="oUDWL8CgOT2m1cm1Y60V-161">
          <mxGeometry x="480" width="230" height="46" as="geometry">
            <mxRectangle width="230" height="46" as="alternateBounds" />
          </mxGeometry>
        </mxCell>
        <mxCell id="oUDWL8CgOT2m1cm1Y60V-165" value="" style="shape=tableRow;horizontal=0;startSize=0;swimlaneHead=0;swimlaneBody=0;top=0;left=0;bottom=0;right=0;dropTarget=0;collapsible=0;recursiveResize=0;expand=0;fontStyle=1;strokeColor=inherit;fillColor=#EAF2D3;" vertex="1" parent="oUDWL8CgOT2m1cm1Y60V-156">
          <mxGeometry y="122" width="710" height="68" as="geometry" />
        </mxCell>
        <mxCell id="oUDWL8CgOT2m1cm1Y60V-166" value="2.CÃ³digo sucursal" style="connectable=0;recursiveResize=0;strokeColor=inherit;fillColor=inherit;whiteSpace=wrap;html=1;" vertex="1" parent="oUDWL8CgOT2m1cm1Y60V-165">
          <mxGeometry width="170" height="68" as="geometry">
            <mxRectangle width="170" height="68" as="alternateBounds" />
          </mxGeometry>
        </mxCell>
        <mxCell id="oUDWL8CgOT2m1cm1Y60V-167" value="-Cualquier nÃºmero de 4 dÃ­gitos&lt;div&gt;-El dÃ­gito bese ser mayor que 0&lt;/div&gt;" style="connectable=0;recursiveResize=0;strokeColor=inherit;fillColor=inherit;whiteSpace=wrap;html=1;" vertex="1" parent="oUDWL8CgOT2m1cm1Y60V-165">
          <mxGeometry x="170" width="310" height="68" as="geometry">
            <mxRectangle width="310" height="68" as="alternateBounds" />
          </mxGeometry>
        </mxCell>
        <mxCell id="oUDWL8CgOT2m1cm1Y60V-168" value="Value 6" style="connectable=0;recursiveResize=0;strokeColor=inherit;fillColor=inherit;whiteSpace=wrap;html=1;" vertex="1" parent="oUDWL8CgOT2m1cm1Y60V-165">
          <mxGeometry x="480" width="230" height="68" as="geometry">
            <mxRectangle width="230" height="68" as="alternateBounds" />
          </mxGeometry>
        </mxCell>
        <mxCell id="oUDWL8CgOT2m1cm1Y60V-169" value="" style="shape=tableRow;horizontal=0;startSize=0;swimlaneHead=0;swimlaneBody=0;top=0;left=0;bottom=0;right=0;dropTarget=0;collapsible=0;recursiveResize=0;expand=0;fontStyle=0;strokeColor=inherit;fillColor=#ffffff;" vertex="1" parent="oUDWL8CgOT2m1cm1Y60V-156">
          <mxGeometry y="190" width="710" height="76" as="geometry" />
        </mxCell>
        <mxCell id="oUDWL8CgOT2m1cm1Y60V-170" value="3.NÃºmero de cuenta" style="connectable=0;recursiveResize=0;strokeColor=inherit;fillColor=inherit;fontStyle=0;align=center;whiteSpace=wrap;html=1;" vertex="1" parent="oUDWL8CgOT2m1cm1Y60V-169">
          <mxGeometry width="170" height="76" as="geometry">
            <mxRectangle width="170" height="76" as="alternateBounds" />
          </mxGeometry>
        </mxCell>
        <mxCell id="oUDWL8CgOT2m1cm1Y60V-171" value="-Numero de 5 dÃ­gitos" style="connectable=0;recursiveResize=0;strokeColor=inherit;fillColor=inherit;fontStyle=0;align=center;whiteSpace=wrap;html=1;" vertex="1" parent="oUDWL8CgOT2m1cm1Y60V-169">
          <mxGeometry x="170" width="310" height="76" as="geometry">
            <mxRectangle width="310" height="76" as="alternateBounds" />
          </mxGeometry>
        </mxCell>
        <mxCell id="oUDWL8CgOT2m1cm1Y60V-172" value="Value 9" style="connectable=0;recursiveResize=0;strokeColor=inherit;fillColor=inherit;fontStyle=0;align=center;whiteSpace=wrap;html=1;" vertex="1" parent="oUDWL8CgOT2m1cm1Y60V-169">
          <mxGeometry x="480" width="230" height="76" as="geometry">
            <mxRectangle width="230" height="76" as="alternateBounds" />
          </mxGeometry>
        </mxCell>
        <mxCell id="oUDWL8CgOT2m1cm1Y60V-173" value="" style="shape=tableRow;horizontal=0;startSize=0;swimlaneHead=0;swimlaneBody=0;top=0;left=0;bottom=0;right=0;dropTarget=0;collapsible=0;recursiveResize=0;expand=0;fontStyle=1;strokeColor=inherit;fillColor=#EAF2D3;" vertex="1" parent="oUDWL8CgOT2m1cm1Y60V-156">
          <mxGeometry y="266" width="710" height="71" as="geometry" />
        </mxCell>
        <mxCell id="oUDWL8CgOT2m1cm1Y60V-174" value="4.Clave personal" style="connectable=0;recursiveResize=0;strokeColor=inherit;fillColor=inherit;whiteSpace=wrap;html=1;" vertex="1" parent="oUDWL8CgOT2m1cm1Y60V-173">
          <mxGeometry width="170" height="71" as="geometry">
            <mxRectangle width="170" height="71" as="alternateBounds" />
          </mxGeometry>
        </mxCell>
        <mxCell id="oUDWL8CgOT2m1cm1Y60V-175" value="Value 11" style="connectable=0;recursiveResize=0;strokeColor=inherit;fillColor=inherit;whiteSpace=wrap;html=1;" vertex="1" parent="oUDWL8CgOT2m1cm1Y60V-173">
          <mxGeometry x="170" width="310" height="71" as="geometry">
            <mxRectangle width="310" height="71" as="alternateBounds" />
          </mxGeometry>
        </mxCell>
        <mxCell id="oUDWL8CgOT2m1cm1Y60V-176" value="Value 12" style="connectable=0;recursiveResize=0;strokeColor=inherit;fillColor=inherit;whiteSpace=wrap;html=1;" vertex="1" parent="oUDWL8CgOT2m1cm1Y60V-173">
          <mxGeometry x="480" width="230" height="71" as="geometry">
            <mxRectangle width="230" height="71" as="alternateBounds" />
          </mxGeometry>
        </mxCell>
      </root>
    </mxGraphModel>
  </diagram>
</mxfile>
